<?xml version="1.0" encoding="UTF-8"?>
<svg id="_レイヤー_1" data-name="レイヤー 1" xmlns="http://www.w3.org/2000/svg" viewBox="0 0 512 512">
  <defs>
    <style>
      .cls-1 {
        fill: #379fce;
      }
    </style>
  </defs>
  <path class="cls-1" d="M18.32,143.99H57.61v96.41l-4.86,52.55H23.47l-5.15-52.55v-96.41Zm0,178.1H57.61v41.65H18.32v-41.65Z"/>
  <path class="cls-1" d="M208.21,355.35c-7.26,4.22-15.06,7.38-23.4,9.49-8.34,2.11-17.32,3.16-26.94,3.16-25.42,0-45.29-7.65-59.61-22.96-14.33-15.31-21.49-36.5-21.49-63.59s7.21-48.45,21.64-63.81c14.42-15.36,34.34-23.04,59.76-23.04,8.83,0,17.34,1.03,25.54,3.09,8.19,2.06,16.36,5.25,24.51,9.57v39.45c-6.28-5.39-13.17-9.54-20.68-12.44-7.51-2.89-15.28-4.34-23.33-4.34-14.03,0-24.83,4.47-32.38,13.39-7.56,8.93-11.33,21.64-11.33,38.12s3.78,29.14,11.33,37.97c7.56,8.83,18.35,13.25,32.38,13.25,8.34,0,16.14-1.4,23.4-4.19,7.26-2.8,14.13-7.04,20.61-12.73v39.59Z"/>
  <path class="cls-1" d="M343.22,204.04v37.68c-7.95-5.1-16.22-8.95-24.8-11.55-8.59-2.6-17.2-3.9-25.83-3.9-9.62,0-16.88,1.4-21.79,4.19-4.91,2.8-7.36,6.94-7.36,12.44,0,7.85,10.5,14.23,31.5,19.14l1.62,.44,12.36,2.94c15.7,3.73,27.2,9.74,34.52,18.03,7.31,8.29,10.97,19.5,10.97,33.63,0,16.98-5.57,29.71-16.7,38.2-11.14,8.49-27.89,12.73-50.27,12.73-9.91,0-20.07-.86-30.47-2.58-10.4-1.71-20.95-4.29-31.65-7.73v-37.68c9.52,5.4,19.21,9.52,29.07,12.36,9.86,2.85,19.4,4.27,28.63,4.27,10.1,0,17.76-1.47,22.96-4.42,5.2-2.94,7.8-7.21,7.8-12.81s-1.84-9.71-5.52-12.66c-3.68-2.94-12.44-6.08-26.27-9.42l-11.92-2.65c-16.49-3.73-28.51-9.57-36.06-17.52-7.56-7.95-11.33-18.59-11.33-31.94,0-15.9,5.74-28.26,17.22-37.09,11.48-8.83,27.62-13.25,48.42-13.25,9.32,0,18.62,.76,27.89,2.28,9.27,1.52,18.28,3.8,27.01,6.84Z"/>
  <path class="cls-1" d="M482.5,204.04v37.68c-7.95-5.1-16.22-8.95-24.8-11.55-8.59-2.6-17.2-3.9-25.83-3.9-9.62,0-16.88,1.4-21.79,4.19-4.91,2.8-7.36,6.94-7.36,12.44,0,7.85,10.5,14.23,31.5,19.14l1.62,.44,12.36,2.94c15.7,3.73,27.2,9.74,34.52,18.03,7.31,8.29,10.97,19.5,10.97,33.63,0,16.98-5.57,29.71-16.7,38.2-11.14,8.49-27.89,12.73-50.27,12.73-9.91,0-20.07-.86-30.47-2.58-10.4-1.71-20.95-4.29-31.65-7.73v-37.68c9.52,5.4,19.21,9.52,29.07,12.36,9.86,2.85,19.4,4.27,28.63,4.27,10.1,0,17.76-1.47,22.96-4.42,5.2-2.94,7.8-7.21,7.8-12.81s-1.84-9.71-5.52-12.66c-3.68-2.94-12.44-6.08-26.27-9.42l-11.92-2.65c-16.49-3.73-28.51-9.57-36.06-17.52-7.56-7.95-11.33-18.59-11.33-31.94,0-15.9,5.74-28.26,17.22-37.09,11.48-8.83,27.62-13.25,48.43-13.25,9.32,0,18.62,.76,27.89,2.28,9.27,1.52,18.28,3.8,27.01,6.84Z"/>
  <path class="cls-1" d="M343.22,204.04v37.68c-7.95-5.1-16.22-8.95-24.8-11.55-8.59-2.6-17.2-3.9-25.83-3.9-9.62,0-16.88,1.4-21.79,4.19-4.91,2.8-7.36,6.94-7.36,12.44,0,7.85,10.5,14.23,31.5,19.14l1.62,.44,12.36,2.94c15.7,3.73,27.2,9.74,34.52,18.03,7.31,8.29,10.97,19.5,10.97,33.63,0,16.98-5.57,29.71-16.7,38.2-11.14,8.49-27.89,12.73-50.27,12.73-9.91,0-20.07-.86-30.47-2.58-10.4-1.71-20.95-4.29-31.65-7.73v-37.68c9.52,5.4,19.21,9.52,29.07,12.36,9.86,2.85,19.4,4.27,28.63,4.27,10.1,0,17.76-1.47,22.96-4.42,5.2-2.94,7.8-7.21,7.8-12.81s-1.84-9.71-5.52-12.66c-3.68-2.94-12.44-6.08-26.27-9.42l-11.92-2.65c-16.49-3.73-28.51-9.57-36.06-17.52-7.56-7.95-11.33-18.59-11.33-31.94,0-15.9,5.74-28.26,17.22-37.09,11.48-8.83,27.62-13.25,48.42-13.25,9.32,0,18.62,.76,27.89,2.28,9.27,1.52,18.28,3.8,27.01,6.84Z"/>
  <path class="cls-1" d="M482.5,204.04v37.68c-7.95-5.1-16.22-8.95-24.8-11.55-8.59-2.6-17.2-3.9-25.83-3.9-9.62,0-16.88,1.4-21.79,4.19-4.91,2.8-7.36,6.94-7.36,12.44,0,7.85,10.5,14.23,31.5,19.14l1.62,.44,12.36,2.94c15.7,3.73,27.2,9.74,34.52,18.03,7.31,8.29,10.97,19.5,10.97,33.63,0,16.98-5.57,29.71-16.7,38.2-11.14,8.49-27.89,12.73-50.27,12.73-9.91,0-20.07-.86-30.47-2.58-10.4-1.71-20.95-4.29-31.65-7.73v-37.68c9.52,5.4,19.21,9.52,29.07,12.36,9.86,2.85,19.4,4.27,28.63,4.27,10.1,0,17.76-1.47,22.96-4.42,5.2-2.94,7.8-7.21,7.8-12.81s-1.84-9.71-5.52-12.66c-3.68-2.94-12.44-6.08-26.27-9.42l-11.92-2.65c-16.49-3.73-28.51-9.57-36.06-17.52-7.56-7.95-11.33-18.59-11.33-31.94,0-15.9,5.74-28.26,17.22-37.09,11.48-8.83,27.62-13.25,48.43-13.25,9.32,0,18.62,.76,27.89,2.28,9.27,1.52,18.28,3.8,27.01,6.84Z"/>
</svg>